<?xml version="1.0" encoding="UTF-8" standalone="no"?>
<svg
   xmlns:dc="http://purl.org/dc/elements/1.1/"
   xmlns:cc="http://creativecommons.org/ns#"
   xmlns:rdf="http://www.w3.org/1999/02/22-rdf-syntax-ns#"
   xmlns:svg="http://www.w3.org/2000/svg"
   xmlns="http://www.w3.org/2000/svg"
   id="svg8"
   version="1.1"
   viewBox="0 0 50.764336 24.23229"
   height="24.23229mm"
   width="50.764336mm">
  <defs
     id="defs2" />
  <metadata
     id="metadata5">
    <rdf:RDF>
      <cc:Work
         rdf:about="">
        <dc:format>image/svg+xml</dc:format>
        <dc:type
           rdf:resource="http://purl.org/dc/dcmitype/StillImage" />
        <dc:title></dc:title>
      </cc:Work>
    </rdf:RDF>
  </metadata>
  <g
     transform="translate(-20.148911,-125.73891)"
     id="layer1">
    <g
       id="text4520"
       style="font-style:normal;font-variant:normal;font-weight:normal;font-stretch:normal;font-size:14.11111069px;line-height:1.25;font-family:LEIXO;-inkscape-font-specification:'LEIXO, Normal';font-variant-ligatures:normal;font-variant-caps:normal;font-variant-numeric:normal;font-feature-settings:normal;text-align:start;letter-spacing:0px;word-spacing:0px;writing-mode:lr-tb;text-anchor:start;fill:#000000;fill-opacity:1;stroke:none;stroke-width:0.26458332"
       aria-label="train
">
      <path
         id="path4562"
         style="font-style:normal;font-variant:normal;font-weight:normal;font-stretch:normal;font-size:14.11111069px;font-family:'Caviar Dreams';-inkscape-font-specification:'Caviar Dreams, Normal';font-variant-ligatures:normal;font-variant-caps:normal;font-variant-numeric:normal;font-feature-settings:normal;text-align:end;writing-mode:lr-tb;text-anchor:end;fill:#ffffff"
         d="m 21.526949,128.61901 v -2.8801 h 0.620117 v 2.8801 h 1.378038 v 0.62012 h -1.378038 v 6.14605 h -0.620117 v -6.14605 h -1.378038 v -0.62012 z" />
      <path
         id="path4564"
         style="font-style:normal;font-variant:normal;font-weight:normal;font-stretch:normal;font-size:14.11111069px;font-family:'Caviar Dreams';-inkscape-font-specification:'Caviar Dreams, Normal';font-variant-ligatures:normal;font-variant-caps:normal;font-variant-numeric:normal;font-feature-settings:normal;text-align:end;writing-mode:lr-tb;text-anchor:end;fill:#ffffff"
         d="m 25.19253,128.61901 h 0.620118 v 1.23334 q 0.192925,-0.2756 0.447862,-0.53054 0.819933,-0.81993 1.681207,-0.86128 v 0.67524 q -0.585667,0.0276 -1.212674,0.65457 -0.881944,0.87506 -0.916395,2.10151 v 3.49333 H 25.19253 Z" />
      <path
         id="path4566"
         style="font-style:normal;font-variant:normal;font-weight:normal;font-stretch:normal;font-size:14.11111069px;font-family:'Caviar Dreams';-inkscape-font-specification:'Caviar Dreams, Normal';font-variant-ligatures:normal;font-variant-caps:normal;font-variant-numeric:normal;font-feature-settings:normal;text-align:end;writing-mode:lr-tb;text-anchor:end;fill:#ffffff"
         d="M 36.630247,135.38518 H 36.01013 v -1.37804 q -0.179145,0.24115 -0.392741,0.46164 -1.109321,1.10932 -2.680284,1.10932 -1.564074,0 -2.673394,-1.10932 -1.109321,-1.10932 -1.109321,-2.67339 0,-1.57097 1.109321,-2.68029 1.10932,-1.10932 2.673394,-1.10932 1.570963,0 2.680284,1.10932 0.213596,0.22049 0.392741,0.46165 v -0.95774 h 0.620117 z m -0.620117,-2.97657 v -1.22645 q -0.172255,-0.90951 -0.861274,-1.59852 -0.916396,-0.9164 -2.211751,-0.9164 -1.295356,0 -2.211752,0.9164 -0.916395,0.91639 -0.916395,2.21175 0,1.29535 0.916395,2.21175 0.916396,0.9095 2.211752,0.9095 1.295355,0 2.211751,-0.91639 0.689019,-0.68902 0.861274,-1.59164 z" />
      <path
         id="path4568"
         style="font-style:normal;font-variant:normal;font-weight:normal;font-stretch:normal;font-size:14.11111069px;font-family:'Caviar Dreams';-inkscape-font-specification:'Caviar Dreams, Normal';font-variant-ligatures:normal;font-variant-caps:normal;font-variant-numeric:normal;font-feature-settings:normal;text-align:end;writing-mode:lr-tb;text-anchor:end;fill:#ffffff"
         d="m 39.455226,128.61901 v 6.76617 h -0.620117 v -6.76617 z m -0.310058,-2.39779 q 0.254937,0 0.434082,0.17915 0.186035,0.17914 0.186035,0.43408 0,0.26183 -0.186035,0.44097 -0.179145,0.17915 -0.434082,0.17915 -0.254937,0 -0.440972,-0.17915 -0.179145,-0.17914 -0.179145,-0.44097 0,-0.25494 0.179145,-0.43408 0.186035,-0.17915 0.440972,-0.17915 z" />
      <path
         id="path4570"
         style="font-style:normal;font-variant:normal;font-weight:normal;font-stretch:normal;font-size:14.11111069px;font-family:'Caviar Dreams';-inkscape-font-specification:'Caviar Dreams, Normal';font-variant-ligatures:normal;font-variant-caps:normal;font-variant-numeric:normal;font-feature-settings:normal;text-align:end;writing-mode:lr-tb;text-anchor:end;fill:#ffffff"
         d="m 42.293985,130.12796 v 5.25722 h -0.620117 v -6.76617 h 0.620117 v 0.43408 q 0.847494,-0.8406 1.970595,-0.8406 1.198893,0 1.949924,0.75103 0.75103,0.75103 0.771701,1.8948 v 4.52686 h -0.620117 v -4.47174 q 0,-0.86127 -0.627008,-1.46761 -0.620117,-0.61323 -1.4745,-0.61323 -0.854384,0 -1.474501,0.59945 -0.337619,0.33762 -0.496094,0.69591 z" />
    </g>
    <g
       id="flowRoot4524"
       style="font-style:normal;font-variant:normal;font-weight:normal;font-stretch:normal;font-size:53.33333206px;line-height:1.25;font-family:LEIXO;-inkscape-font-specification:'LEIXO, Normal';font-variant-ligatures:normal;font-variant-caps:normal;font-variant-numeric:normal;font-feature-settings:normal;text-align:start;letter-spacing:0px;word-spacing:0px;writing-mode:lr-tb;text-anchor:start;fill:#000000;fill-opacity:1;stroke:none"
       transform="scale(0.26458333)" />
    <g
       id="flowRoot4532"
       style="font-style:normal;font-variant:normal;font-weight:normal;font-stretch:normal;font-size:53.33333206px;line-height:1.25;font-family:LEIXO;-inkscape-font-specification:'LEIXO, Normal';font-variant-ligatures:normal;font-variant-caps:normal;font-variant-numeric:normal;font-feature-settings:normal;text-align:start;letter-spacing:0px;word-spacing:0px;writing-mode:lr-tb;text-anchor:start;fill:#000000;fill-opacity:1;stroke:none"
       transform="scale(0.26458333)" />
    <g
       id="text4550"
       style="font-style:normal;font-variant:normal;font-weight:normal;font-stretch:normal;font-size:19.709795px;line-height:1.25;font-family:LEIXO;-inkscape-font-specification:'LEIXO, Normal';font-variant-ligatures:normal;font-variant-caps:normal;font-variant-numeric:normal;font-feature-settings:normal;text-align:start;letter-spacing:0px;word-spacing:0px;writing-mode:lr-tb;text-anchor:start;fill:#000000;fill-opacity:1;stroke:none;stroke-width:0.36955863"
       transform="scale(0.98772641,1.0124261)"
       aria-label="ER">
      <path
         id="path4575"
         style="font-style:normal;font-variant:normal;font-weight:100;font-stretch:normal;font-size:35.47763062px;font-family:'AR BONNIE';-inkscape-font-specification:'AR BONNIE, Thin';font-variant-ligatures:normal;font-variant-caps:normal;font-variant-numeric:normal;font-feature-settings:normal;text-align:start;writing-mode:lr-tb;text-anchor:start;fill:#ffe507;fill-opacity:1;stroke-width:0.36955863"
         d="m 52.176956,147.86845 v -16.10684 h -0.886941 l -0.638597,-1.70293 h 1.525538 v -5.85381 h 6.066675 v 1.73841 H 53.91536 v 4.1154 h 4.115405 l 0.638597,1.70293 H 53.91536 v 14.36844 h 4.328271 v 1.7384 z" />
      <path
         id="path4577"
         style="font-style:normal;font-variant:normal;font-weight:100;font-stretch:normal;font-size:35.47763062px;font-family:'AR BONNIE';-inkscape-font-specification:'AR BONNIE, Thin';font-variant-ligatures:normal;font-variant-caps:normal;font-variant-numeric:normal;font-feature-settings:normal;text-align:start;writing-mode:lr-tb;text-anchor:start;fill:#ffe507;fill-opacity:1;stroke-width:0.36955863"
         d="m 68.778824,147.86845 -6.102153,-5.10877 v 5.10877 h -1.738404 v -23.66358 h 1.277195 q 3.973495,0 6.776227,2.73178 2.802733,2.73178 2.802733,6.6698 0,3.15751 -1.773881,5.53451 -1.773882,2.34152 -4.78948,3.4768 l 6.315018,5.25069 z m 1.277194,-14.15557 q 0,-3.22847 -2.09318,-5.35712 -2.057702,-2.16414 -5.286167,-2.48344 v 15.50373 q 3.192987,-0.35478 5.215212,-2.377 2.164135,-2.12866 2.164135,-5.28617 z" />
    </g>
    <g
       id="text4554"
       style="font-style:normal;font-variant:normal;font-weight:normal;font-stretch:normal;font-size:14.11111069px;line-height:1.25;font-family:LEIXO;-inkscape-font-specification:'LEIXO, Normal';font-variant-ligatures:normal;font-variant-caps:normal;font-variant-numeric:normal;font-feature-settings:normal;text-align:start;letter-spacing:0px;word-spacing:0px;writing-mode:lr-tb;text-anchor:start;fill:#000000;fill-opacity:1;stroke:none;stroke-width:0.26458332"
       aria-label="find">
      <path
         id="path4580"
         style="font-style:normal;font-variant:normal;font-weight:normal;font-stretch:normal;font-size:14.11111069px;font-family:'Caviar Dreams';-inkscape-font-specification:'Caviar Dreams, Normal';font-variant-ligatures:normal;font-variant-caps:normal;font-variant-numeric:normal;font-feature-settings:normal;text-align:start;letter-spacing:0px;writing-mode:lr-tb;text-anchor:start;fill:#ffffff;stroke-width:0.26458332"
         d="m 26.837882,143.63222 v 6.14605 h -0.620117 v -6.14605 h -0.689019 v -0.62011 h 0.689019 v -1.83279 q 0.04134,-0.76481 0.585666,-1.31603 0.564996,-0.52365 1.302246,-0.52365 0.385851,0 0.813042,0.14469 l -0.192925,0.55121 q -0.289388,-0.12402 -0.558105,-0.12402 -0.489204,0 -0.923286,0.39274 -0.385851,0.37896 -0.406521,0.9164 v 1.79145 h 1.378038 v 0.62011 z" />
      <path
         id="path4582"
         style="font-style:normal;font-variant:normal;font-weight:normal;font-stretch:normal;font-size:14.11111069px;font-family:'Caviar Dreams';-inkscape-font-specification:'Caviar Dreams, Normal';font-variant-ligatures:normal;font-variant-caps:normal;font-variant-numeric:normal;font-feature-settings:normal;text-align:start;letter-spacing:0px;writing-mode:lr-tb;text-anchor:start;fill:#ffffff;stroke-width:0.26458332"
         d="m 30.131393,143.01211 v 6.76616 h -0.620117 v -6.76616 z m -0.310059,-2.39779 q 0.254937,0 0.434082,0.17915 0.186036,0.17914 0.186036,0.43408 0,0.26183 -0.186036,0.44097 -0.179145,0.17914 -0.434082,0.17914 -0.254937,0 -0.440972,-0.17914 -0.179145,-0.17914 -0.179145,-0.44097 0,-0.25494 0.179145,-0.43408 0.186035,-0.17915 0.440972,-0.17915 z" />
      <path
         id="path4584"
         style="font-style:normal;font-variant:normal;font-weight:normal;font-stretch:normal;font-size:14.11111069px;font-family:'Caviar Dreams';-inkscape-font-specification:'Caviar Dreams, Normal';font-variant-ligatures:normal;font-variant-caps:normal;font-variant-numeric:normal;font-feature-settings:normal;text-align:start;letter-spacing:0px;writing-mode:lr-tb;text-anchor:start;fill:#ffffff;stroke-width:0.26458332"
         d="m 32.983932,144.52106 v 5.25721 h -0.620117 v -6.76616 h 0.620117 v 0.43408 q 0.847493,-0.8406 1.970594,-0.8406 1.198894,0 1.949924,0.75103 0.751031,0.75103 0.771702,1.8948 v 4.52685 h -0.620117 v -4.47173 q 0,-0.86127 -0.627008,-1.46761 -0.620117,-0.61323 -1.474501,-0.61323 -0.854383,0 -1.4745,0.59945 -0.33762,0.33762 -0.496094,0.69591 z" />
      <path
         id="path4586"
         style="font-style:normal;font-variant:normal;font-weight:normal;font-stretch:normal;font-size:14.11111069px;font-family:'Caviar Dreams';-inkscape-font-specification:'Caviar Dreams, Normal';font-variant-ligatures:normal;font-variant-caps:normal;font-variant-numeric:normal;font-feature-settings:normal;text-align:start;letter-spacing:0px;writing-mode:lr-tb;text-anchor:start;fill:#ffffff;stroke-width:0.26458332"
         d="m 47.053702,149.77827 h -0.620117 v -1.37803 q -0.179145,0.24115 -0.392741,0.46164 -1.109321,1.10932 -2.680285,1.10932 -1.564073,0 -2.673394,-1.10932 -1.10932,-1.10932 -1.10932,-2.67339 0,-1.57097 1.10932,-2.68029 1.109321,-1.10932 2.673394,-1.10932 1.570964,0 2.680285,1.10932 0.213596,0.22049 0.392741,0.46164 v -5.21587 h 0.620117 z m -0.620117,-2.97656 v -1.22645 q -0.172255,-0.90951 -0.861274,-1.59853 -0.916396,-0.91639 -2.211752,-0.91639 -1.295355,0 -2.211751,0.91639 -0.916395,0.9164 -0.916395,2.21176 0,1.29535 0.916395,2.21175 0.916396,0.9095 2.211751,0.9095 1.295356,0 2.211752,-0.91639 0.689019,-0.68902 0.861274,-1.59164 z" />
    </g>
  </g>
</svg>
